<?xml version="1.0" standalone="no"?>
<!DOCTYPE svg PUBLIC "-//W3C//DTD SVG 20010904//EN"
 "http://www.w3.org/TR/2001/REC-SVG-20010904/DTD/svg10.dtd">
<svg version="1.0" xmlns="http://www.w3.org/2000/svg"
 width="512.000000pt" height="512.000000pt" viewBox="0 0 512.000000 512.000000"
 preserveAspectRatio="xMidYMid meet">
<metadata>
Created by potrace 1.15, written by Peter Selinger 2001-2017
</metadata>
<g transform="translate(0.000000,512.000000) scale(0.100000,-0.100000)"
fill="#000000" stroke="none">
<path d="M0 4363 c0 -5 269 -412 599 -906 l598 -898 -598 -897 c-330 -493
-599 -901 -599 -907 0 -7 158 -9 458 -7 l459 2 602 904 603 904 -604 905 -603
906 -457 1 c-252 0 -458 -3 -458 -7z"/>
<path d="M1200 4365 c0 -4 270 -411 600 -905 l600 -900 -600 -900 c-330 -495
-600 -902 -600 -905 0 -3 207 -5 460 -5 l459 0 367 550 c201 303 369 552 374
555 4 2 173 -245 376 -550 l369 -554 458 -1 c251 0 457 3 457 7 0 5 -541 819
-1202 1810 l-1201 1803 -459 0 c-252 0 -458 -2 -458 -5z"/>
<path d="M3117 3289 c11 -16 103 -155 204 -309 l184 -279 808 0 807 -1 0 310
0 310 -1011 0 -1011 0 19 -31z"/>
<path d="M3712 2405 c2 -8 91 -147 198 -309 l195 -295 508 0 507 -1 0 310 0
310 -706 0 c-621 0 -705 -2 -702 -15z"/>
</g>
</svg>
